<mxfile host="app.diagrams.net" agent="Mozilla/5.0 (Windows NT 10.0; Win64; x64) AppleWebKit/537.36 (KHTML, like Gecko) Chrome/136.0.0.0 Safari/537.36" version="27.0.6">
  <diagram name="Page-1" id="TEtHuLIVFC8fTKMwhhVS">
    <mxGraphModel dx="1188" dy="648" grid="1" gridSize="10" guides="1" tooltips="1" connect="1" arrows="1" fold="1" page="1" pageScale="1" pageWidth="850" pageHeight="1100" math="0" shadow="0">
      <root>
        <mxCell id="0" />
        <mxCell id="1" parent="0" />
        <mxCell id="mjvpX72sKQm_LS7Zqh5G-1" value="Middleware" style="text;html=1;align=center;verticalAlign=middle;whiteSpace=wrap;rounded=0;fontStyle=1;fontSize=27;" vertex="1" parent="1">
          <mxGeometry x="330" y="250" width="220" height="30" as="geometry" />
        </mxCell>
        <mxCell id="mjvpX72sKQm_LS7Zqh5G-2" value="Actor" style="shape=umlActor;verticalLabelPosition=bottom;verticalAlign=top;html=1;outlineConnect=0;" vertex="1" parent="1">
          <mxGeometry x="100" y="400" width="30" height="60" as="geometry" />
        </mxCell>
        <mxCell id="mjvpX72sKQm_LS7Zqh5G-5" style="edgeStyle=orthogonalEdgeStyle;rounded=0;orthogonalLoop=1;jettySize=auto;html=1;exitX=1;exitY=0.25;exitDx=0;exitDy=0;entryX=0;entryY=0.25;entryDx=0;entryDy=0;" edge="1" parent="1" source="mjvpX72sKQm_LS7Zqh5G-3" target="mjvpX72sKQm_LS7Zqh5G-4">
          <mxGeometry relative="1" as="geometry" />
        </mxCell>
        <mxCell id="mjvpX72sKQm_LS7Zqh5G-7" value="Request" style="edgeLabel;html=1;align=center;verticalAlign=middle;resizable=0;points=[];fontSize=19;" vertex="1" connectable="0" parent="mjvpX72sKQm_LS7Zqh5G-5">
          <mxGeometry x="-0.4239" relative="1" as="geometry">
            <mxPoint as="offset" />
          </mxGeometry>
        </mxCell>
        <mxCell id="mjvpX72sKQm_LS7Zqh5G-3" value="Postman" style="whiteSpace=wrap;html=1;aspect=fixed;fontSize=17;" vertex="1" parent="1">
          <mxGeometry x="200" y="400" width="80" height="80" as="geometry" />
        </mxCell>
        <mxCell id="mjvpX72sKQm_LS7Zqh5G-6" style="edgeStyle=orthogonalEdgeStyle;rounded=0;orthogonalLoop=1;jettySize=auto;html=1;exitX=0;exitY=0.75;exitDx=0;exitDy=0;entryX=1;entryY=0.75;entryDx=0;entryDy=0;" edge="1" parent="1" source="mjvpX72sKQm_LS7Zqh5G-4" target="mjvpX72sKQm_LS7Zqh5G-3">
          <mxGeometry relative="1" as="geometry" />
        </mxCell>
        <mxCell id="mjvpX72sKQm_LS7Zqh5G-8" value="Response" style="edgeLabel;html=1;align=center;verticalAlign=middle;resizable=0;points=[];fontSize=18;" vertex="1" connectable="0" parent="mjvpX72sKQm_LS7Zqh5G-6">
          <mxGeometry x="0.3299" y="-1" relative="1" as="geometry">
            <mxPoint as="offset" />
          </mxGeometry>
        </mxCell>
        <mxCell id="mjvpX72sKQm_LS7Zqh5G-4" value="Node JS REST API" style="rounded=1;whiteSpace=wrap;html=1;fillColor=#fff2cc;strokeColor=#d6b656;fontSize=21;" vertex="1" parent="1">
          <mxGeometry x="510" y="390" width="210" height="100" as="geometry" />
        </mxCell>
        <mxCell id="mjvpX72sKQm_LS7Zqh5G-10" style="edgeStyle=orthogonalEdgeStyle;rounded=0;orthogonalLoop=1;jettySize=auto;html=1;" edge="1" parent="1" source="mjvpX72sKQm_LS7Zqh5G-9">
          <mxGeometry relative="1" as="geometry">
            <mxPoint x="440" y="420" as="targetPoint" />
          </mxGeometry>
        </mxCell>
        <mxCell id="mjvpX72sKQm_LS7Zqh5G-11" style="edgeStyle=orthogonalEdgeStyle;rounded=0;orthogonalLoop=1;jettySize=auto;html=1;exitX=0.25;exitY=1;exitDx=0;exitDy=0;" edge="1" parent="1" source="mjvpX72sKQm_LS7Zqh5G-9">
          <mxGeometry relative="1" as="geometry">
            <mxPoint x="470" y="470" as="targetPoint" />
            <Array as="points">
              <mxPoint x="529" y="360" />
              <mxPoint x="471" y="360" />
              <mxPoint x="471" y="460" />
              <mxPoint x="470" y="460" />
            </Array>
          </mxGeometry>
        </mxCell>
        <mxCell id="mjvpX72sKQm_LS7Zqh5G-9" value="Function" style="text;html=1;align=center;verticalAlign=middle;whiteSpace=wrap;rounded=0;fillColor=#f8cecc;strokeColor=#b85450;fontSize=17;" vertex="1" parent="1">
          <mxGeometry x="500" y="290" width="115" height="30" as="geometry" />
        </mxCell>
      </root>
    </mxGraphModel>
  </diagram>
</mxfile>
